# xmcd
#
# Track frame offsets:
# 150
# 17425
# 37069
# 58087
# 74652
# 89642
# 109474
# 129893
# 144695
# 161390
# 172092
# 184333
# 195460
# 203781
# 223202
# 235425
# 251420
# 270766
# 279883
# 293744
# 309027
# 322322
#
# Disc length: 4465 seconds
#
# Revision: 0
# Processed by: cddbd v1.5.2PL0 Copyright (c) Steve Scherf et al.
# Submitted via: Audion 3.0.2 (http://www.panic.com/audion/)
#
DISCID=50116f16
DTITLE=Max Brooks - The Zombie Survival Guide [CD7]
DYEAR=1900
DGENRE=
TTITLE0=Disc 7 - Track 1
TTITLE1=Disc 7 - Track 2
TTITLE2=Disc 7 - Track 3
TTITLE3=Disc 7 - Track 4
TTITLE4=Disc 7 - Track 5
TTITLE5=Disc 7 - Track 6
TTITLE6=Disc 7 - Track 7
TTITLE7=Disc 7 - Track 8
TTITLE8=Disc 7 - Track 9
TTITLE9=Disc 7 - Track 10
TTITLE10=Disc 7 - Track 11
TTITLE11=Disc 7 - Track 12
TTITLE12=Disc 7 - Track 13
TTITLE13=Disc 7 - Track 14
TTITLE14=Disc 7 - Track 15
TTITLE15=Disc 7 - Track 16
TTITLE16=Disc 7 - Track 17
TTITLE17=Disc 7 - Track 18
TTITLE18=Disc 7 - Track 19
TTITLE19=Disc 7 - Track 20
TTITLE20=Disc 7 - Track 21
TTITLE21=Disc 7 - Track 22
EXTD=
EXTT0=
EXTT1=
EXTT2=
EXTT3=
EXTT4=
EXTT5=
EXTT6=
EXTT7=
EXTT8=
EXTT9=
EXTT10=
EXTT11=
EXTT12=
EXTT13=
EXTT14=
EXTT15=
EXTT16=
EXTT17=
EXTT18=
EXTT19=
EXTT20=
EXTT21=
PLAYORDER=
